<svg id="Layer_1" data-name="Layer 1" xmlns="http://www.w3.org/2000/svg" viewBox="0 0 285.79 65.89"><defs><style>.cls-1{fill:#fff;}</style></defs><path class="cls-1" d="M95.5,32.7C85,32,70.7,28.8,75,18c5.6-14.5,27.4,5.6,28.1,6.7,0,0-.9-29.4,16.1-23.9C132.6,9,121,21.5,112.7,28m3.8-16.9c-5.1-2-7.1,13.5-7.1,13.5C110.9,23.2,121.3,12.9,116.5,11.1Zm-18,15.6s-10.4-9-12.5-5C83.6,26.1,98.5,26.7,98.5,26.7Z" transform="translate(-74.22 -0.11)"/><path class="cls-1" d="M141.7,46.7c-.1,4.7,0,15.2,0,15.3v4H114.6c-8.1,0-15-1.8-19.7-5.3a17.15,17.15,0,0,1-7.4-14.1,16.93,16.93,0,0,1,5.1-12.2c4.8-4.8,12.4-7.2,22-7.2h27.1v8H114.6c-7.3-.1-13.1,1.7-16.3,4.8a9.07,9.07,0,0,0-2.8,6.6c0,7,7.3,11.4,19.1,11.4h19.1V50.6H118.3v-8h23.4ZM161.3,66h-8V27.2h8Zm66.3-31.1H180.9v7.5H212v8.1H180.9V66h-8.1V26.9h54.7l.1,8ZM239,26.4h54.7v8.1H270.4V65.7h-8.1V34.4H239v-8Zm120.9-.1.1,4a16.89,16.89,0,0,1-4.9,11.9c-3,3.1-8.6,6.7-18.4,7.6l-.1,15.9-8.1-.1.1-15.8c-7.7-.6-14-3.2-18.2-7.4a17.4,17.4,0,0,1-5.1-12.1l.1-4,8.1.1-.1,4a9,9,0,0,0,2.7,6.3c3.4,3.4,9.2,5.2,16.5,5.2s13.4-2,16.7-5.4a8.41,8.41,0,0,0,2.6-6.1l-.1-4Z" transform="translate(-74.22 -0.11)"/></svg>