<svg id="Layer_1" data-name="Layer 1" xmlns="http://www.w3.org/2000/svg" viewBox="0 0 285.81 65.95"><defs><style>.cls-1{fill:#dbb189;}</style></defs><path class="cls-1" d="M95.49,32.74C85,32,70.67,28.82,75,18c5.64-14.51,27.44,5.63,28.08,6.67,0,0-.86-29.35,16.1-23.93C132.5,9,120.92,21.49,112.68,28m3.78-16.82c-5.12-2-7.09,13.53-7.09,13.53C110.89,23.18,121.29,12.94,116.46,11.15ZM98.54,26.71s-10.39-9-12.52-5C83.64,26.06,98.54,26.71,98.54,26.71Z" transform="translate(-74.19 -0.08)"/><path class="cls-1" d="M141.74,46.69c-.07,4.69,0,15.21,0,15.32l0,4H114.65c-8.14,0-15-1.82-19.71-5.27a17.15,17.15,0,0,1-7.37-14.11A16.88,16.88,0,0,1,92.68,34.4c4.78-4.75,12.39-7.22,22-7.15,5.87,0,22.89,0,23.06,0h4l0,8h-4c-.17,0-17.23,0-23.14,0-7.33-.06-13.12,1.66-16.32,4.84a8.94,8.94,0,0,0-2.75,6.57c0,7,7.32,11.4,19.1,11.4h19.09c0-2.18,0-4.94,0-7.41H118.36v-8H141.8ZM161.32,66h-8V27.25h8Zm66.23-31.1H180.9v7.49H212v8.06H180.9V66h-8.06V26.86h54.72v8.06ZM239,26.37h54.71v8.06H270.41V65.65h-8.05V34.43H239V26.37Zm120.91-.1.06,4a16.62,16.62,0,0,1-4.92,11.85c-3,3.11-8.63,6.75-18.43,7.6l-.12,15.88-8.06,0,.12-15.79c-7.66-.62-14-3.19-18.22-7.41a16.75,16.75,0,0,1-5.08-12.08l.06-4,8,.12,0,4a8.66,8.66,0,0,0,2.74,6.29c3.36,3.39,9.24,5.23,16.52,5.17,7.44-.05,13.38-2,16.71-5.36a8.5,8.5,0,0,0,2.62-6.1l-.06-4Z" transform="translate(-74.19 -0.08)"/></svg>